<svg width="91" height="91" viewBox="0 0 91 91" fill="none" xmlns="http://www.w3.org/2000/svg">
<circle cx="45.2434" cy="45.0854" r="45.0854" fill="#FFCB97"/>
<ellipse cx="45.2433" cy="45.0854" rx="43.7838" ry="43.631" fill="#885420"/>
<path d="M36.1756 33.642C36.5336 33.642 36.7905 33.7198 36.9462 33.8755C37.1174 34.0311 37.203 34.2335 37.203 34.4826C37.203 34.8874 37.0785 35.2454 36.8294 35.5568C36.5959 35.8681 36.2223 36.0316 35.7085 36.0471C34.4631 36.0783 33.3578 35.9849 32.3926 35.7669C31.2874 38.0865 29.9485 40.0169 28.3762 41.5581C26.8195 43.0837 25.2549 43.8465 23.6826 43.8465C22.0636 43.8465 20.8571 42.9047 20.0631 41.021C19.2692 39.1373 18.8722 36.592 18.8722 33.3851C18.8722 30.6452 19.0668 28.1855 19.456 26.0061C19.5961 25.1965 19.7907 24.6517 20.0398 24.3715C20.3044 24.0757 20.7481 23.9278 21.3708 23.9278C22.3983 23.9278 22.912 24.3715 22.912 25.2588C22.912 25.3522 22.8964 25.5235 22.8653 25.7725C22.3983 28.5747 22.1648 31.1122 22.1648 33.3851C22.1648 35.7669 22.3594 37.5805 22.7485 38.826C23.1533 40.0558 23.7526 40.6707 24.5466 40.6707C25.3561 40.6707 26.2357 40.1103 27.1853 38.9894C28.1349 37.8685 29.0067 36.4597 29.8006 34.7628C28.851 34.1713 28.1349 33.4084 27.6523 32.4744C27.1697 31.5248 26.9284 30.435 26.9284 29.2052C26.9284 27.9754 27.1152 26.9401 27.4889 26.0995C27.8781 25.2433 28.3996 24.605 29.0534 24.1847C29.7228 23.7643 30.4623 23.5542 31.2718 23.5542C32.2681 23.5542 33.0543 23.9122 33.6303 24.6283C34.2218 25.3444 34.5176 26.3252 34.5176 27.5706C34.5176 29.3609 34.1284 31.3146 33.3501 33.4318C34.1751 33.5719 35.117 33.642 36.1756 33.642ZM29.2869 29.0417C29.2869 30.5674 29.7773 31.696 30.7581 32.4277C31.3652 30.6841 31.6688 29.2441 31.6688 28.1077C31.6688 27.4538 31.5831 26.979 31.4119 26.6833C31.2406 26.3719 31.0071 26.2162 30.7114 26.2162C30.291 26.2162 29.9485 26.4653 29.6839 26.9635C29.4192 27.4461 29.2869 28.1388 29.2869 29.0417ZM75.3427 61.5691C75.5451 61.5691 75.7008 61.6703 75.8097 61.8727C75.9343 62.0595 75.9965 62.3008 75.9965 62.5965C75.9965 62.9546 75.9421 63.2348 75.8331 63.4372C75.7241 63.6396 75.5529 63.8186 75.3194 63.9743C74.4009 64.5814 72.9375 65.5777 70.9293 66.9632C70.3222 70.1857 69.536 72.7232 68.5708 74.5758C67.6056 76.4283 66.3836 77.3546 64.9047 77.3546C64.1107 77.3546 63.4647 77.1055 62.9665 76.6074C62.4683 76.1248 62.2193 75.4865 62.2193 74.6925C62.2193 73.9609 62.3827 73.2214 62.7096 72.4742C63.0365 71.7269 63.6437 70.8629 64.531 69.8822C65.434 68.9014 66.7027 67.7805 68.3373 66.5196L68.4074 66.0759C67.1775 66.5896 65.971 66.8465 64.7879 66.8465C63.0443 66.8465 61.5109 66.5118 60.1877 65.8424C58.8644 65.1574 57.837 64.1922 57.1053 62.9468C56.3736 61.7014 56.0078 60.2536 56.0078 58.6035C56.0078 56.2995 56.4437 54.2679 57.3155 52.5088C58.1873 50.7341 59.386 49.3641 60.9116 48.3989C62.4528 47.4182 64.173 46.9278 66.0722 46.9278C67.8936 46.9278 69.2558 47.3559 70.1587 48.2121C71.0772 49.0528 71.5364 50.1736 71.5364 51.5747C71.5364 52.4932 71.3652 53.2327 71.0227 53.7931C70.6958 54.338 70.221 54.6104 69.5983 54.6104C69.178 54.6104 68.8355 54.5092 68.5708 54.3068C68.3217 54.1044 68.1972 53.8242 68.1972 53.4662C68.1972 53.3105 68.2283 53.0458 68.2906 52.6722C68.384 52.2363 68.4307 51.8938 68.4307 51.6448C68.4307 50.9909 68.2283 50.485 67.8236 50.1269C67.4344 49.7689 66.7728 49.5898 65.8387 49.5898C64.7023 49.5898 63.6437 49.9168 62.6629 50.5706C61.6977 51.2244 60.9194 52.2052 60.3278 53.5129C59.7362 54.805 59.4404 56.3617 59.4404 58.1831C59.4404 60.0513 59.9464 61.499 60.9583 62.5265C61.9857 63.5384 63.4647 64.0443 65.395 64.0443C66.4692 64.0443 67.5901 63.803 68.7576 63.3204L69.0845 60.4716H66.7027C66.2668 60.4716 65.9321 60.3704 65.6986 60.168C65.4651 59.9501 65.3483 59.5998 65.3483 59.1172C65.3483 58.6813 65.4651 58.3388 65.6986 58.0897C65.9321 57.8407 66.2435 57.7161 66.6327 57.7161H70.9994C71.3418 57.7161 71.6221 57.8329 71.84 58.0664C72.0735 58.2843 72.1669 58.6035 72.1202 59.0238C72.0735 59.522 71.9178 60.6506 71.6532 62.4097L71.3963 64.1844C72.6417 63.2504 73.7782 62.4409 74.8056 61.7559C75.008 61.6314 75.187 61.5691 75.3427 61.5691ZM65.1615 75.0895C65.5663 75.0895 66.01 74.6303 66.4925 73.7118C66.9751 72.7933 67.4266 71.3144 67.8469 69.275C66.6638 70.2869 65.8076 71.1976 65.2783 72.0071C64.7645 72.8322 64.5077 73.5561 64.5077 74.1788C64.5077 74.786 64.7256 75.0895 65.1615 75.0895Z" fill="#FFDE96"/>
<path d="M54.1245 47.6309C53.1282 49.1565 51.9217 50.5031 50.5051 51.6707L52.5367 53.9124C52.8947 54.2861 53.0737 54.6752 53.0737 55.08C53.0737 55.4692 52.9181 55.7883 52.6067 56.0374C52.2954 56.3021 51.8828 56.4344 51.3691 56.4344C50.653 56.4344 50.1081 56.2164 49.7345 55.7805L47.773 53.4688C45.936 54.3872 44.1769 54.8465 42.4956 54.8465C41.2502 54.8465 40.1604 54.6519 39.2264 54.2627C38.2923 53.8735 37.5684 53.3364 37.0547 52.6515C36.5565 51.9665 36.3075 51.2037 36.3075 50.363C36.3075 49.2266 36.6577 48.168 37.3583 47.1873C38.0744 46.1909 39.2342 45.2102 40.8376 44.245C39.9347 42.5948 39.4832 41.1393 39.4832 39.8783C39.4832 38.7574 39.7168 37.7689 40.1838 36.9127C40.6508 36.0564 41.2969 35.3948 42.1219 34.9278C42.9626 34.4608 43.92 34.2273 44.9942 34.2273C46.3641 34.2273 47.4227 34.6242 48.1699 35.4182C48.9328 36.1965 49.3142 37.2707 49.3142 38.6407C49.3142 39.7771 48.9795 40.8513 48.3101 41.8631C47.6562 42.8595 46.4887 43.8791 44.8074 44.9222C45.8037 46.2765 47.1191 47.8722 48.7537 49.7092C49.7812 48.7907 50.8009 47.6309 51.8128 46.2298C51.984 45.9808 52.1864 45.8095 52.4199 45.7161C52.6534 45.6071 52.9414 45.5527 53.2839 45.5527C54.1868 45.5527 54.6383 45.8095 54.6383 46.3233C54.6383 46.6502 54.467 47.0861 54.1245 47.6309ZM44.8307 36.6791C44.099 36.6791 43.523 36.9594 43.1027 37.5198C42.6824 38.0647 42.4722 38.7496 42.4722 39.5747C42.4722 40.5555 42.7991 41.6296 43.453 42.7972C44.6672 42.0811 45.4923 41.3883 45.9282 40.7189C46.3641 40.0495 46.5821 39.3178 46.5821 38.5239C46.5821 37.9479 46.4342 37.4964 46.1384 37.1695C45.8426 36.8426 45.4067 36.6791 44.8307 36.6791ZM42.6357 52.2778C43.8499 52.2778 45.0097 52.0132 46.115 51.4839C44.4649 49.5068 43.165 47.8177 42.2154 46.4167C40.4562 47.5687 39.5767 48.7674 39.5767 50.0128C39.5767 50.7289 39.8491 51.2893 40.3939 51.6941C40.9388 52.0832 41.6861 52.2778 42.6357 52.2778Z" fill="#FFCB97"/>
</svg>
